<svg id="Layer_1" data-name="Layer 1" xmlns="http://www.w3.org/2000/svg" width="1200" height="675" viewBox="0 0 1200 675">
  <defs>
    <style>
      .cls-1 {
        fill: #2a242a;
      }

      .cls-2 {
        fill: #00a69c;
      }

      .cls-3 {
        fill: #90278e;
      }

      .cls-4 {
        fill: #f6921e;
      }

      .cls-5 {
        fill: #fdbf2b;
      }

      .cls-6 {
        fill: #ec2e8f;
      }

      .cls-7 {
        font-size: 50.17px;
        font-family: Lato-Regular, Lato;
      }

      .cls-13, .cls-7 {
        fill: #fff;
      }

      .cls-8 {
        letter-spacing: -0.02em;
      }

      .cls-9 {
        letter-spacing: 0em;
      }

      .cls-10 {
        letter-spacing: -0.05em;
      }

      .cls-11 {
        font-size: 38.15px;
        fill: #00a19a;
      }

      .cls-11, .cls-13 {
        font-family: Roboto-Regular, Roboto;
      }

      .cls-12 {
        letter-spacing: -0.01em;
      }

      .cls-13 {
        font-size: 32px;
      }

      .cls-14 {
        letter-spacing: -0.01em;
      }

      .cls-15 {
        letter-spacing: -0.11em;
      }
    </style>
  </defs>
  <rect class="cls-1" width="1200" height="675"/>
  <g>
    <path class="cls-2" d="M183.42,179.56a51.78,51.78,0,0,1,50.43.47c.07,0,41.15-70.36,41.15-70.36l-3.92-2a143.88,143.88,0,0,0-58.89-16.29,121.55,121.55,0,0,0-65.42,14.83l-3.93,2.25S183.36,179.6,183.42,179.56ZM154.18,111.5a113.65,113.65,0,0,1,57.61-12,135.18,135.18,0,0,1,51.91,13.56c-6.13,11.15-26,46.41-32,56.76-1.45-.57-3.06-1.12-4.78-1.64,2.5-5.14,6.47-13.34,10.38-21.5,3.74-7.8,6.69-14,8.78-18.53,1.24-2.69,2.19-4.79,2.82-6.24.36-.84.63-1.48.8-2,1.37-3.68-1-5.26-1.73-5.66-33.82-17.88-75.63-2.6-77.39-1.94l-4.07,1.52,21.72,47.5,28.48-1.15L228,127.89l-16.5-1.52-4.17,26.13-14.08.56-15.76-34.44c10.56-3.08,39.23-9.64,63.37,1.26-3.62,8.13-14.3,30.33-22.11,46.41-9.61-1.66-21.1-1.54-31.79,3.21C180.79,158.85,160.36,122.74,154.18,111.5Z"/>
    <path class="cls-3" d="M259.28,226.59A51.75,51.75,0,0,1,233.67,270c-.07,0,40.36,70.81,40.36,70.81l3.66-2.41a144,144,0,0,0,43.56-42.85,121.68,121.68,0,0,0,19.86-64.07l0-4.53S259.28,226.52,259.28,226.59Zm73.57,8.71a113.73,113.73,0,0,1-18.41,55.89,135.17,135.17,0,0,1-37.7,38.17c-6.59-10.88-27.18-45.74-33.13-56.13,1.22-1,2.5-2.09,3.81-3.32,3.2,4.73,8.32,12.27,13.43,19.74,4.88,7.14,8.81,12.81,11.66,16.86,1.71,2.43,3.05,4.3,4,5.57.55.73,1,1.28,1.29,1.67,2.5,3,5,1.78,5.76,1.33,32.4-20.35,40.07-64.2,40.38-66l.72-4.29-52-4.94L259.4,265l22.33,26,9.56-13.53-20.54-16.68,6.55-12.48L315,252c-2.61,10.68-11.26,38.8-32.78,54.25-5.23-7.2-19.12-27.55-29.13-42.36,6.23-7.49,11.88-17.5,13.11-29.12C278.54,234.66,320,235,332.85,235.3Z"/>
    <path class="cls-4" d="M156.27,223.45A51.79,51.79,0,0,1,181.89,180c.06,0-40.36-70.81-40.36-70.81l-3.67,2.41a143.87,143.87,0,0,0-43.55,42.85,121.72,121.72,0,0,0-19.87,64.07v4.54S156.27,223.52,156.27,223.45ZM82.7,214.74a113.77,113.77,0,0,1,18.41-55.88,135.34,135.34,0,0,1,37.7-38.18c6.6,10.88,27.18,45.75,33.13,56.13-1.22,1-2.5,2.09-3.8,3.33-3.21-4.74-8.32-12.28-13.43-19.75-4.89-7.13-8.81-12.81-11.66-16.86-1.71-2.43-3.05-4.3-4-5.57-.54-.73-1-1.28-1.29-1.67-2.5-3-5-1.77-5.76-1.32C99.61,155.31,91.93,199.16,91.62,201l-.72,4.29,52,4.93L156.15,185l-22.32-26-9.57,13.53,20.54,16.68-6.55,12.48-37.7-3.58c2.6-10.68,11.26-38.79,32.77-54.24,5.23,7.19,19.12,27.54,29.13,42.35-6.23,7.49-11.87,17.5-13.11,29.13C137,215.38,95.53,215,82.7,214.74Z"/>
    <path class="cls-5" d="M234.77,181a51.78,51.78,0,0,1,24.82,43.9c0,.08,81.5.46,81.5.46l-.25-4.38a144.11,144.11,0,0,0-15.33-59.15A121.8,121.8,0,0,0,280,112.55L276,110.28S234.72,180.93,234.77,181ZM279.1,121.6a113.7,113.7,0,0,1,39.19,43.89,135.22,135.22,0,0,1,14.22,51.73c-12.72.28-53.21.67-65.18.63-.24-1.54-.56-3.21-1-4.95,5.7-.41,14.78-1.07,23.81-1.77,8.62-.66,15.5-1.22,20.43-1.66,3-.27,5.25-.49,6.82-.68.91-.1,1.59-.19,2.09-.28,3.87-.65,4.06-3.48,4-4.33-1.42-38.22-35.56-66.79-37-68l-3.36-2.77L252.91,176l15.23,24.1,33.7-6.32-6.93-15-24.72,9.46-7.53-11.92,21.95-30.87c7.95,7.61,28,29.16,30.59,55.52-8.85.92-33.42,2.78-51.25,4-3.37-9.15-9.22-19-18.66-25.92C251.39,168.32,272.45,132.57,279.1,121.6Z"/>
    <path class="cls-6" d="M180.84,268.37A51.77,51.77,0,0,1,156,224.46c0-.07-81.51-.45-81.51-.45l.25,4.38a144,144,0,0,0,15.34,59.14,121.65,121.65,0,0,0,45.55,49.24l3.92,2.28S180.9,268.4,180.84,268.37Zm-44.33,59.35a113.6,113.6,0,0,1-39.19-43.88A135.27,135.27,0,0,1,83.1,232.1c12.72-.27,53.21-.66,65.18-.63.24,1.55.56,3.21,1,5-5.71.41-14.79,1.07-23.82,1.76-8.62.66-15.5,1.22-20.43,1.67-3,.26-5.25.49-6.82.67-.91.11-1.59.2-2.09.28-3.86.66-4.06,3.49-4,4.33,1.42,38.23,35.56,66.8,37,68l3.36,2.76,30.27-42.56-15.23-24.09-33.71,6.32,6.93,15,24.72-9.45L153,273.08,131,303.94c-7.94-7.6-28-29.15-30.59-55.51,8.85-.93,33.42-2.78,51.25-4.05,3.37,9.14,9.22,19,18.67,25.92C164.22,281,143.16,316.75,136.51,327.72Z"/>
  </g>
  <text class="cls-7" transform="translate(369.76 211.88)">CUMBRE DE CONTRIBUIDORES<tspan x="0" y="60.2">DE OPEN SOU</tspan><tspan class="cls-8" x="327.28" y="60.2">R</tspan><tspan class="cls-9" x="358.43" y="60.2">CE SOFT</tspan><tspan class="cls-10" x="556.24" y="60.2">W</tspan><tspan x="605" y="60.2">ARE</tspan></text>
  <text class="cls-11" transform="translate(83.1 431.11)">Impulsando la contribución al open sou<tspan class="cls-12" x="666.17" y="0">r</tspan><tspan x="678.73" y="0">ce en Latinoamérica</tspan></text>
  <text class="cls-13" transform="translate(710.23 522.31)">19 al 24 de octub<tspan class="cls-14" x="244.78" y="0">r</tspan><tspan x="255.31" y="0">e de 2020</tspan><tspan x="151.47" y="38.4">https:</tspan><tspan class="cls-15" x="232.2" y="38.4">/</tspan><tspan x="241.89" y="38.4">/ccoss.o</tspan><tspan class="cls-14" x="366.5" y="38.4">r</tspan><tspan x="377.03" y="38.4">g</tspan></text>
</svg>
