<svg id="Layer_1" data-name="Layer 1" xmlns="http://www.w3.org/2000/svg" viewBox="0 0 716.16 159.22"><defs><style>.cls-1{fill:#00a79d;}.cls-2{fill:#92278f;}.cls-3{fill:#f7941d;}.cls-4{fill:#fec02b;}.cls-5{fill:#ed2e90;}.cls-6{fill:#fff;}</style></defs><title>ccoss_logo_expandido_blanco_curvas</title><path class="cls-1" d="M69.53,56.34a33,33,0,0,1,32.16.3s26.25-44.88,26.25-44.88l-2.5-1.26A91.79,91.79,0,0,0,87.88.11,77.55,77.55,0,0,0,46.14,9.57L43.64,11S69.49,56.36,69.53,56.34ZM50.87,12.92A72.57,72.57,0,0,1,87.62,5.27a86.28,86.28,0,0,1,33.11,8.65c-3.9,7.11-16.6,29.6-20.44,36.2-.93-.36-2-.71-3.05-1,1.59-3.28,4.13-8.51,6.62-13.72,2.39-5,4.27-8.95,5.6-11.82.79-1.71,1.4-3.05,1.8-4,.23-.53.4-.94.51-1.24.87-2.35-.62-3.36-1.1-3.61C89.09,3.3,62.43,13.05,61.3,13.47l-2.6,1,13.86,30.3L90.73,44,98,23.38l-10.53-1L84.8,39.07l-9,.36-10-22c6.73-2,25-6.15,40.42.81-2.31,5.18-9.12,19.35-14.11,29.6-6.12-1-13.45-1-20.27,2.05C67.85,43.13,54.81,20.1,50.87,12.92Z"/><path class="cls-2" d="M117.92,86.34a33.06,33.06,0,0,1-16.34,27.71s25.74,45.17,25.74,45.17l2.34-1.54a91.76,91.76,0,0,0,27.78-27.34,77.59,77.59,0,0,0,12.67-40.87V86.58S117.92,86.29,117.92,86.34Zm46.92,5.55a72.51,72.51,0,0,1-11.74,35.65,86.26,86.26,0,0,1-24,24.35c-4.2-6.94-17.34-29.18-21.13-35.8.78-.63,1.59-1.34,2.43-2.12,2,3,5.3,7.83,8.56,12.59,3.12,4.55,5.62,8.17,7.44,10.76,1.09,1.55,2,2.74,2.55,3.55.35.47.62.82.82,1.06,1.6,1.93,3.22,1.14,3.68.85,20.66-13,25.56-40.95,25.75-42.13l.46-2.74-33.16-3.14L118,110.86l14.24,16.61,6.11-8.63L125.23,108.2l4.18-8,24.05,2.28c-1.66,6.81-7.18,24.75-20.91,34.6-3.33-4.59-12.19-17.57-18.58-27,4-4.78,7.58-11.17,8.37-18.58C130.2,91.49,156.66,91.72,164.84,91.89Z"/><path class="cls-3" d="M52.21,84.34A33,33,0,0,1,68.55,56.63S42.8,11.46,42.8,11.46L40.46,13A92,92,0,0,0,12.68,40.33,77.59,77.59,0,0,0,0,81.2v2.89S52.21,84.38,52.21,84.34ZM5.28,78.78A72.51,72.51,0,0,1,17,43.13,86.26,86.26,0,0,1,41.07,18.78C45.28,25.72,58.41,48,62.2,54.58c-.77.63-1.59,1.34-2.42,2.12-2.05-3-5.31-7.83-8.57-12.59-3.12-4.55-5.62-8.17-7.44-10.76-1.09-1.54-2-2.74-2.55-3.55-.34-.47-.61-.81-.82-1.06-1.59-1.93-3.22-1.14-3.68-.85C16.06,40.87,11.17,68.84,11,70l-.46,2.74,33.17,3.15,8.45-16.1L37.89,43.21l-6.1,8.62,13.1,10.64-4.18,8-24-2.28c1.66-6.81,7.18-24.74,20.91-34.6,3.33,4.59,12.19,17.57,18.58,27-4,4.77-7.58,11.16-8.36,18.58C39.93,79.19,13.46,79,5.28,78.78Z"/><path class="cls-4" d="M102.28,57.23a33,33,0,0,1,15.83,28s52,.3,52,.3l-.16-2.8A92,92,0,0,0,160.16,45,77.63,77.63,0,0,0,131.1,13.6l-2.5-1.46S102.24,57.21,102.28,57.23Zm28.28-37.86a72.49,72.49,0,0,1,25,28,86.13,86.13,0,0,1,9.06,33c-8.11.18-33.94.43-41.57.4-.15-1-.36-2.05-.62-3.16,3.63-.26,9.43-.68,15.19-1.12,5.5-.42,9.88-.78,13-1.06,1.89-.17,3.35-.32,4.35-.43.58-.07,1-.13,1.33-.19,2.47-.41,2.59-2.21,2.57-2.76-.9-24.38-22.68-42.6-23.6-43.37l-2.15-1.76-19.3,27.15,9.71,15.37,21.5-4-4.42-9.59-15.77,6-4.8-7.6,14-19.69c5.07,4.85,17.84,18.59,19.51,35.41-5.64.59-21.31,1.77-32.69,2.58C118.75,66.7,115,60.39,109,56,112.88,49.17,126.31,26.37,130.56,19.37Z"/><path class="cls-5" d="M67.88,113A33,33,0,0,1,52.05,85s-52-.29-52-.29l.16,2.79A91.77,91.77,0,0,0,10,125.21a77.66,77.66,0,0,0,29.06,31.41l2.5,1.45S67.91,113,67.88,113ZM39.6,150.85a72.59,72.59,0,0,1-25-28,86.32,86.32,0,0,1-9.07-33c8.12-.17,33.94-.42,41.58-.4.15,1,.36,2,.62,3.16-3.64.26-9.43.69-15.19,1.13-5.5.42-9.89.78-13,1.06-1.89.17-3.35.31-4.35.43l-1.33.18c-2.47.42-2.6,2.22-2.58,2.76.91,24.39,22.69,42.61,23.61,43.37L37,143.31l19.31-27.15L46.6,100.79l-21.5,4,4.42,9.6,15.77-6,4.8,7.6-14,19.69c-5.07-4.85-17.84-18.6-19.51-35.41,5.64-.59,21.31-1.78,32.68-2.59,2.15,5.84,5.88,12.15,11.91,16.54C57.27,121,43.84,143.85,39.6,150.85Z"/><path class="cls-6" d="M209.7,74.63a.73.73,0,0,1,.52.23l1.37,1.49a11.14,11.14,0,0,1-3.84,2.87,13.19,13.19,0,0,1-5.45,1,12.89,12.89,0,0,1-5.06-1,11.07,11.07,0,0,1-3.87-2.7,12.39,12.39,0,0,1-2.48-4.17,15.5,15.5,0,0,1-.88-5.34,14.63,14.63,0,0,1,.94-5.35,12.3,12.3,0,0,1,2.66-4.18,11.87,11.87,0,0,1,4.09-2.7,13.81,13.81,0,0,1,5.27-1,12.54,12.54,0,0,1,4.9.88,12.4,12.4,0,0,1,3.67,2.4l-1.14,1.6a1.18,1.18,0,0,1-.29.3.75.75,0,0,1-.46.11.86.86,0,0,1-.5-.17l-.62-.42c-.24-.17-.52-.35-.85-.54a7.32,7.32,0,0,0-1.15-.54,8.84,8.84,0,0,0-1.55-.42,10.19,10.19,0,0,0-2-.17,9.73,9.73,0,0,0-3.79.71,8.57,8.57,0,0,0-3,2,9.21,9.21,0,0,0-1.93,3.21,12,12,0,0,0-.7,4.23,12.24,12.24,0,0,0,.7,4.3,9.56,9.56,0,0,0,1.88,3.19,8,8,0,0,0,2.84,2,9,9,0,0,0,3.53.69,14.24,14.24,0,0,0,2.07-.14,8.63,8.63,0,0,0,1.7-.42,7.38,7.38,0,0,0,1.46-.73,11.08,11.08,0,0,0,1.36-1A.9.9,0,0,1,209.7,74.63Z"/><path class="cls-6" d="M226.21,77.18a7.22,7.22,0,0,0,2.86-.54,5.94,5.94,0,0,0,2.13-1.51,6.56,6.56,0,0,0,1.33-2.32,9.07,9.07,0,0,0,.46-3V54.16h3.48V69.84a11.84,11.84,0,0,1-.71,4.14,9.76,9.76,0,0,1-2,3.3,9.33,9.33,0,0,1-3.23,2.19,12,12,0,0,1-8.57,0A9.28,9.28,0,0,1,216.64,74a11.84,11.84,0,0,1-.71-4.14V54.16h3.47V69.82a9.34,9.34,0,0,0,.46,3,6.71,6.71,0,0,0,1.33,2.32,6,6,0,0,0,2.15,1.52A7.06,7.06,0,0,0,226.21,77.18Z"/><path class="cls-6" d="M255.59,71.54c.13.32.25.64.37,1,.12-.33.25-.65.38-1s.28-.61.45-.93l8.73-15.86a1.05,1.05,0,0,1,.48-.5,2.25,2.25,0,0,1,.72-.09h2.58V80h-3.06V61c0-.25,0-.52,0-.81s0-.58.05-.88l-8.84,16.13a1.39,1.39,0,0,1-1.26.81h-.5a1.39,1.39,0,0,1-1.26-.81l-9-16.19c0,.32.06.62.08.92s0,.58,0,.83V80h-3.06V54.16H245a2.17,2.17,0,0,1,.72.09,1.07,1.07,0,0,1,.49.5l8.91,15.88A7,7,0,0,1,255.59,71.54Z"/><path class="cls-6" d="M275.58,80V54.16h8.23a15.81,15.81,0,0,1,4.09.47A8,8,0,0,1,290.73,56a5.27,5.27,0,0,1,1.63,2.12,7,7,0,0,1,.54,2.81,5.68,5.68,0,0,1-.3,1.84,5.5,5.5,0,0,1-.9,1.64,6.61,6.61,0,0,1-1.51,1.35,8.62,8.62,0,0,1-2.14,1,8,8,0,0,1,4.27,2,5.34,5.34,0,0,1,1.44,3.89,7.29,7.29,0,0,1-.6,3,6.45,6.45,0,0,1-1.77,2.32,8.09,8.09,0,0,1-2.84,1.5,12.54,12.54,0,0,1-3.84.54Zm3.49-14.24h4.61a8.84,8.84,0,0,0,2.56-.33,5,5,0,0,0,1.79-.9,3.57,3.57,0,0,0,1.05-1.39,4.57,4.57,0,0,0,.34-1.79A3.92,3.92,0,0,0,288.05,58a6.89,6.89,0,0,0-4.24-1.07h-4.74Zm0,2.48v9h5.58a8.47,8.47,0,0,0,2.57-.34,4.86,4.86,0,0,0,1.76-1,3.86,3.86,0,0,0,1-1.48,5.37,5.37,0,0,0,.32-1.88,3.89,3.89,0,0,0-1.41-3.16,6.67,6.67,0,0,0-4.28-1.16Z"/><path class="cls-6" d="M302.71,69.19V80h-3.48V54.16h7.29a15.93,15.93,0,0,1,4.23.5,7.92,7.92,0,0,1,2.94,1.43,5.58,5.58,0,0,1,1.72,2.26,7.95,7.95,0,0,1,.13,5.51A6.84,6.84,0,0,1,314.29,66a7.61,7.61,0,0,1-2,1.61,10.21,10.21,0,0,1-2.67,1,3.69,3.69,0,0,1,1.15,1.09L318.29,80H315.2a1.54,1.54,0,0,1-1.41-.74L307.1,70a2,2,0,0,0-.67-.62,2.35,2.35,0,0,0-1.08-.19Zm0-2.54h3.65a8.75,8.75,0,0,0,2.69-.37,5.37,5.37,0,0,0,1.94-1,4.23,4.23,0,0,0,1.18-1.61,5.16,5.16,0,0,0,.4-2.07,4.14,4.14,0,0,0-1.52-3.48,7.43,7.43,0,0,0-4.53-1.17h-3.81Z"/><path class="cls-6" d="M338,54.16V57H325.56v8.57h10v2.74h-10v8.8H338V80H322.06V54.16Z"/><path class="cls-6" d="M372.27,67.07a14.54,14.54,0,0,1-.91,5.27,11.74,11.74,0,0,1-2.6,4.07,11.49,11.49,0,0,1-4,2.62,13.92,13.92,0,0,1-5.18.93h-9.65V54.16h9.65a13.92,13.92,0,0,1,5.18.93,11.37,11.37,0,0,1,4,2.63,11.84,11.84,0,0,1,2.6,4.07A14.63,14.63,0,0,1,372.27,67.07Zm-3.58,0a12.73,12.73,0,0,0-.65-4.25,9,9,0,0,0-1.83-3.17,7.89,7.89,0,0,0-2.88-2,10.07,10.07,0,0,0-3.76-.68h-6.14V77.13h6.14a10.07,10.07,0,0,0,3.76-.68,7.89,7.89,0,0,0,2.88-2A8.77,8.77,0,0,0,368,71.31,12.67,12.67,0,0,0,368.69,67.07Z"/><path class="cls-6" d="M392.92,54.16V57H380.54v8.57h10v2.74h-10v8.8h12.38V80H377V54.16Z"/><path class="cls-6" d="M423.07,74.63a.73.73,0,0,1,.52.23L425,76.35a11.14,11.14,0,0,1-3.84,2.87,13.19,13.19,0,0,1-5.45,1,12.89,12.89,0,0,1-5.06-1,11.07,11.07,0,0,1-3.87-2.7,12.39,12.39,0,0,1-2.48-4.17,15.5,15.5,0,0,1-.88-5.34,14.63,14.63,0,0,1,.94-5.35A12.3,12.3,0,0,1,407,57.54a11.87,11.87,0,0,1,4.09-2.7,13.81,13.81,0,0,1,5.27-1,12.54,12.54,0,0,1,4.9.88,12.4,12.4,0,0,1,3.67,2.4l-1.14,1.6a1.18,1.18,0,0,1-.29.3.75.75,0,0,1-.46.11.86.86,0,0,1-.5-.17l-.62-.42c-.24-.17-.52-.35-.85-.54a7.32,7.32,0,0,0-1.15-.54,8.84,8.84,0,0,0-1.55-.42,10.19,10.19,0,0,0-2-.17,9.73,9.73,0,0,0-3.79.71,8.57,8.57,0,0,0-3,2,9.21,9.21,0,0,0-1.93,3.21,12,12,0,0,0-.7,4.23,12.24,12.24,0,0,0,.7,4.3,9.56,9.56,0,0,0,1.88,3.19,8,8,0,0,0,2.84,2,9,9,0,0,0,3.53.69A14.24,14.24,0,0,0,418,77.1a8.63,8.63,0,0,0,1.7-.42,7.38,7.38,0,0,0,1.46-.73,11.08,11.08,0,0,0,1.36-1A.9.9,0,0,1,423.07,74.63Z"/><path class="cls-6" d="M453.51,67.07a15,15,0,0,1-.92,5.32A12.21,12.21,0,0,1,450,76.55a11.51,11.51,0,0,1-4,2.71,14.34,14.34,0,0,1-10.37,0,11.56,11.56,0,0,1-4-2.71A12.21,12.21,0,0,1,429,72.39a15.84,15.84,0,0,1,0-10.64,12.29,12.29,0,0,1,2.59-4.18,11.58,11.58,0,0,1,4-2.72,14.21,14.21,0,0,1,10.37,0,11.53,11.53,0,0,1,4,2.72,12.29,12.29,0,0,1,2.59,4.18A14.93,14.93,0,0,1,453.51,67.07Zm-3.58,0a13.16,13.16,0,0,0-.65-4.27,9,9,0,0,0-1.84-3.19,8,8,0,0,0-2.88-2,10.5,10.5,0,0,0-7.54,0,8.09,8.09,0,0,0-2.89,2,8.86,8.86,0,0,0-1.84,3.19,14.28,14.28,0,0,0,0,8.52,8.86,8.86,0,0,0,1.84,3.19,7.94,7.94,0,0,0,2.89,2,10.64,10.64,0,0,0,7.54,0,7.82,7.82,0,0,0,2.88-2,9,9,0,0,0,1.84-3.19A13,13,0,0,0,449.93,67.07Z"/><path class="cls-6" d="M460.77,54.28a1.9,1.9,0,0,1,.51.47L476.22,74.2c0-.32-.06-.62-.07-.91s0-.58,0-.86V54.16h3.06V80h-1.76a1.41,1.41,0,0,1-.69-.15,1.71,1.71,0,0,1-.55-.48L461.27,59.9c0,.3,0,.6.05.89s0,.55,0,.79V80h-3.06V54.16h1.8A1.52,1.52,0,0,1,460.77,54.28Z"/><path class="cls-6" d="M503.06,54.16V57.1h-8.33V80h-3.49V57.1h-8.37V54.16Z"/><path class="cls-6" d="M510.57,69.19V80h-3.48V54.16h7.29a15.83,15.83,0,0,1,4.23.5,8,8,0,0,1,2.95,1.43,5.65,5.65,0,0,1,1.71,2.26,7.95,7.95,0,0,1,.13,5.51A6.66,6.66,0,0,1,522.15,66a7.61,7.61,0,0,1-2,1.61,10.07,10.07,0,0,1-2.67,1,3.59,3.59,0,0,1,1.15,1.09L526.15,80h-3.09a1.54,1.54,0,0,1-1.41-.74L515,70a1.94,1.94,0,0,0-.67-.62,2.35,2.35,0,0,0-1.08-.19Zm0-2.54h3.65a8.75,8.75,0,0,0,2.69-.37,5.42,5.42,0,0,0,2-1A4.31,4.31,0,0,0,520,63.63a5.16,5.16,0,0,0,.4-2.07,4.14,4.14,0,0,0-1.52-3.48,7.41,7.41,0,0,0-4.53-1.17h-3.81Z"/><path class="cls-6" d="M534.06,80h-3.49V54.16h3.49Z"/><path class="cls-6" d="M541,80V54.16h8.23a15.81,15.81,0,0,1,4.09.47A8,8,0,0,1,556.12,56a5.27,5.27,0,0,1,1.63,2.12,7,7,0,0,1,.54,2.81,5.68,5.68,0,0,1-.3,1.84,5.5,5.5,0,0,1-.9,1.64,6.61,6.61,0,0,1-1.51,1.35,8.62,8.62,0,0,1-2.14,1,8,8,0,0,1,4.27,2,5.34,5.34,0,0,1,1.44,3.89,7.29,7.29,0,0,1-.6,3,6.45,6.45,0,0,1-1.77,2.32,8.09,8.09,0,0,1-2.84,1.5,12.54,12.54,0,0,1-3.84.54Zm3.49-14.24h4.61a8.84,8.84,0,0,0,2.56-.33,5,5,0,0,0,1.79-.9,3.57,3.57,0,0,0,1.05-1.39,4.57,4.57,0,0,0,.34-1.79A4,4,0,0,0,553.44,58a6.89,6.89,0,0,0-4.24-1.07h-4.74Zm0,2.48v9H550a8.47,8.47,0,0,0,2.57-.34,4.86,4.86,0,0,0,1.76-1,3.86,3.86,0,0,0,1-1.48,5.37,5.37,0,0,0,.32-1.88,3.89,3.89,0,0,0-1.41-3.16A6.67,6.67,0,0,0,550,68.2Z"/><path class="cls-6" d="M574.29,77.18a7.22,7.22,0,0,0,2.86-.54,5.94,5.94,0,0,0,2.13-1.51,6.56,6.56,0,0,0,1.33-2.32,9.07,9.07,0,0,0,.46-3V54.16h3.48V69.84a11.84,11.84,0,0,1-.71,4.14,9.76,9.76,0,0,1-2,3.3,9.33,9.33,0,0,1-3.23,2.19,12,12,0,0,1-8.57,0A9.28,9.28,0,0,1,564.72,74a11.84,11.84,0,0,1-.71-4.14V54.16h3.47V69.82a9.34,9.34,0,0,0,.46,3,6.71,6.71,0,0,0,1.33,2.32,6,6,0,0,0,2.15,1.52A7.06,7.06,0,0,0,574.29,77.18Z"/><path class="cls-6" d="M594.68,80h-3.49V54.16h3.49Z"/><path class="cls-6" d="M624,67.07a14.54,14.54,0,0,1-.92,5.27A11.37,11.37,0,0,1,616.42,79a13.88,13.88,0,0,1-5.18.93h-9.65V54.16h9.65a13.88,13.88,0,0,1,5.18.93,11.5,11.5,0,0,1,4,2.63A11.81,11.81,0,0,1,623,61.79,14.63,14.63,0,0,1,624,67.07Zm-3.58,0a13,13,0,0,0-.65-4.25,9,9,0,0,0-1.84-3.17,7.89,7.89,0,0,0-2.88-2,10.07,10.07,0,0,0-3.76-.68H605.1V77.13h6.14a10.07,10.07,0,0,0,3.76-.68,7.89,7.89,0,0,0,2.88-2,8.79,8.79,0,0,0,1.84-3.16A12.93,12.93,0,0,0,620.37,67.07Z"/><path class="cls-6" d="M652.66,67.07a15,15,0,0,1-.92,5.32,12.21,12.21,0,0,1-2.59,4.16,11.51,11.51,0,0,1-4,2.71,14.34,14.34,0,0,1-10.37,0,11.56,11.56,0,0,1-4-2.71,12.21,12.21,0,0,1-2.59-4.16,15.84,15.84,0,0,1,0-10.64,12.29,12.29,0,0,1,2.59-4.18,11.58,11.58,0,0,1,4-2.72,14.21,14.21,0,0,1,10.37,0,11.53,11.53,0,0,1,4,2.72,12.29,12.29,0,0,1,2.59,4.18A14.93,14.93,0,0,1,652.66,67.07Zm-3.58,0a13.16,13.16,0,0,0-.65-4.27,9,9,0,0,0-1.84-3.19,8,8,0,0,0-2.88-2,10.5,10.5,0,0,0-7.54,0,8.09,8.09,0,0,0-2.89,2,8.86,8.86,0,0,0-1.84,3.19,14.28,14.28,0,0,0,0,8.52,8.86,8.86,0,0,0,1.84,3.19,7.94,7.94,0,0,0,2.89,2,10.64,10.64,0,0,0,7.54,0,7.82,7.82,0,0,0,2.88-2,9,9,0,0,0,1.84-3.19A13,13,0,0,0,649.08,67.07Z"/><path class="cls-6" d="M661.26,69.19V80h-3.47V54.16h7.29a15.93,15.93,0,0,1,4.23.5,7.92,7.92,0,0,1,2.94,1.43A5.67,5.67,0,0,1,674,58.35a7.95,7.95,0,0,1,.13,5.51A6.68,6.68,0,0,1,672.84,66a7.56,7.56,0,0,1-2,1.61,10.15,10.15,0,0,1-2.68,1,3.72,3.72,0,0,1,1.16,1.09L676.85,80h-3.1a1.53,1.53,0,0,1-1.4-.74L665.65,70a1.92,1.92,0,0,0-.66-.62,2.35,2.35,0,0,0-1.08-.19Zm0-2.54h3.66a8.84,8.84,0,0,0,2.69-.37,5.37,5.37,0,0,0,1.94-1,4.34,4.34,0,0,0,1.18-1.61,5.34,5.34,0,0,0,.4-2.07,4.12,4.12,0,0,0-1.53-3.48,7.4,7.4,0,0,0-4.52-1.17h-3.82Z"/><path class="cls-6" d="M696.51,54.16V57H684.12v8.57h10v2.74h-10v8.8h12.39V80h-15.9V54.16Z"/><path class="cls-6" d="M714.74,58.19a1.45,1.45,0,0,1-.34.41.77.77,0,0,1-.47.13,1.24,1.24,0,0,1-.71-.3,10.23,10.23,0,0,0-1-.68,8.36,8.36,0,0,0-1.49-.67,7.12,7.12,0,0,0-4.19,0,4.36,4.36,0,0,0-1.5.85,3.58,3.58,0,0,0-.91,1.27,4.12,4.12,0,0,0-.3,1.58,2.9,2.9,0,0,0,.53,1.79,4.5,4.5,0,0,0,1.4,1.21,10,10,0,0,0,2,.87l2.27.77c.77.26,1.53.56,2.27.89a8.41,8.41,0,0,1,2,1.25,5.67,5.67,0,0,1,1.4,1.86,6.2,6.2,0,0,1,.53,2.69,8.8,8.8,0,0,1-.57,3.18,7.5,7.5,0,0,1-1.69,2.59,7.86,7.86,0,0,1-2.72,1.72,10,10,0,0,1-3.66.63,11.09,11.09,0,0,1-4.56-.91,10.55,10.55,0,0,1-3.52-2.45l1-1.66a1.23,1.23,0,0,1,.35-.33.83.83,0,0,1,.46-.14,1.43,1.43,0,0,1,.86.41,12.64,12.64,0,0,0,1.22.89,9.29,9.29,0,0,0,1.76.89,7,7,0,0,0,2.53.41,6.57,6.57,0,0,0,2.21-.35,4.63,4.63,0,0,0,1.65-1,4.16,4.16,0,0,0,1-1.48,4.81,4.81,0,0,0,.37-1.93,3.21,3.21,0,0,0-.54-1.92A4.43,4.43,0,0,0,711,69.46a9.9,9.9,0,0,0-2-.85l-2.27-.72c-.77-.25-1.53-.54-2.27-.86a7.2,7.2,0,0,1-2-1.26,5.63,5.63,0,0,1-1.39-1.93,6.83,6.83,0,0,1-.53-2.88,6.87,6.87,0,0,1,2.07-4.91,7.33,7.33,0,0,1,2.49-1.58,9,9,0,0,1,3.41-.6,10.83,10.83,0,0,1,3.94.69,8.93,8.93,0,0,1,3.12,2Z"/><path class="cls-6" d="M213.88,110.27a14.54,14.54,0,0,1-.92,5.27,11.37,11.37,0,0,1-6.61,6.69,13.92,13.92,0,0,1-5.18.93h-9.65V97.36h9.65a13.92,13.92,0,0,1,5.18.93,11.5,11.5,0,0,1,4,2.63A11.81,11.81,0,0,1,213,105,14.63,14.63,0,0,1,213.88,110.27Zm-3.59,0a13,13,0,0,0-.64-4.25,9.16,9.16,0,0,0-1.84-3.17,7.89,7.89,0,0,0-2.88-2,10.07,10.07,0,0,0-3.76-.68H195v20.14h6.14a10.07,10.07,0,0,0,3.76-.68,7.89,7.89,0,0,0,2.88-2,9,9,0,0,0,1.84-3.15A13,13,0,0,0,210.29,110.27Z"/><path class="cls-6" d="M234.52,97.36v2.85H222.14v8.56h10v2.74h-10v8.8h12.38v2.85H218.63V97.36Z"/><path class="cls-6" d="M270.45,110.27a15,15,0,0,1-.92,5.32,12.06,12.06,0,0,1-2.59,4.16,11.56,11.56,0,0,1-4,2.71,14.37,14.37,0,0,1-10.38,0,11.56,11.56,0,0,1-4-2.71,12.21,12.21,0,0,1-2.59-4.16,16,16,0,0,1,0-10.64,12.29,12.29,0,0,1,2.59-4.18,11.58,11.58,0,0,1,4-2.72,14.23,14.23,0,0,1,10.38,0,11.58,11.58,0,0,1,4,2.72,12.14,12.14,0,0,1,2.59,4.18A14.93,14.93,0,0,1,270.45,110.27Zm-3.58,0a13.16,13.16,0,0,0-.65-4.27,8.86,8.86,0,0,0-1.84-3.19,8,8,0,0,0-2.88-2,10.5,10.5,0,0,0-7.54,0,8.09,8.09,0,0,0-2.89,2,8.86,8.86,0,0,0-1.84,3.19,14.28,14.28,0,0,0,0,8.52,8.86,8.86,0,0,0,1.84,3.19,7.94,7.94,0,0,0,2.89,2,10.64,10.64,0,0,0,7.54,0,7.82,7.82,0,0,0,2.88-2,8.86,8.86,0,0,0,1.84-3.19A13,13,0,0,0,266.87,110.27Z"/><path class="cls-6" d="M279.05,113.51v9.65h-3.47V97.36h7.61a14.22,14.22,0,0,1,4.26.57,8.11,8.11,0,0,1,3,1.61,6.57,6.57,0,0,1,1.77,2.52,8.84,8.84,0,0,1,.59,3.29,8.44,8.44,0,0,1-.63,3.3,7.14,7.14,0,0,1-1.85,2.57,8.47,8.47,0,0,1-3,1.68,12.67,12.67,0,0,1-4.12.61Zm0-2.77h4.14a8.14,8.14,0,0,0,2.64-.4,5.33,5.33,0,0,0,1.92-1.11,4.71,4.71,0,0,0,1.17-1.7,5.87,5.87,0,0,0,.39-2.18,4.94,4.94,0,0,0-1.52-3.85,6.64,6.64,0,0,0-4.6-1.38h-4.14Z"/><path class="cls-6" d="M313.11,97.36v2.85H300.72v8.56h10v2.74h-10v8.8h12.39v2.85h-15.9V97.36Z"/><path class="cls-6" d="M320.62,97.48a2,2,0,0,1,.52.48l14.94,19.44c0-.32-.06-.62-.08-.91s0-.58,0-.86V97.36h3.06v25.8h-1.77a1.47,1.47,0,0,1-.69-.15,1.71,1.71,0,0,1-.55-.48L321.12,103.1c0,.3,0,.6.05.89s0,.55,0,.79v18.38h-3.06V97.36h1.8A1.52,1.52,0,0,1,320.62,97.48Z"/><path class="cls-6" d="M365.51,101.39a1.47,1.47,0,0,1-.35.41.74.74,0,0,1-.46.13,1.27,1.27,0,0,1-.72-.3,11.22,11.22,0,0,0-1-.68,8.48,8.48,0,0,0-1.5-.67,7.09,7.09,0,0,0-4.18,0,4.36,4.36,0,0,0-1.5.85,3.35,3.35,0,0,0-.91,1.27,3.94,3.94,0,0,0-.31,1.58,3,3,0,0,0,.53,1.79A4.54,4.54,0,0,0,356.5,107a10,10,0,0,0,2,.87l2.26.77c.78.26,1.53.56,2.27.89a8,8,0,0,1,2,1.25,5.84,5.84,0,0,1,1.41,1.86,6.22,6.22,0,0,1,.53,2.7,8.58,8.58,0,0,1-.58,3.17,7.33,7.33,0,0,1-1.68,2.59,8,8,0,0,1-2.72,1.72,10,10,0,0,1-3.66.63,11.17,11.17,0,0,1-4.57-.91,10.61,10.61,0,0,1-3.51-2.45l1-1.66a1.56,1.56,0,0,1,.35-.33A.83.83,0,0,1,352,118a1.45,1.45,0,0,1,.87.41,13.72,13.72,0,0,0,1.21.89,9.72,9.72,0,0,0,1.77.89,7,7,0,0,0,2.53.41,6.61,6.61,0,0,0,2.21-.35,4.63,4.63,0,0,0,1.65-1,4.16,4.16,0,0,0,1-1.48,5,5,0,0,0,.36-1.93,3.27,3.27,0,0,0-.53-1.92,4.43,4.43,0,0,0-1.39-1.25,10,10,0,0,0-2-.85l-2.26-.72a22.09,22.09,0,0,1-2.27-.86,7.06,7.06,0,0,1-2-1.26,5.79,5.79,0,0,1-1.4-1.93,7,7,0,0,1-.53-2.88,6.88,6.88,0,0,1,.53-2.64,7,7,0,0,1,1.54-2.27,7.33,7.33,0,0,1,2.49-1.58,9.08,9.08,0,0,1,3.42-.6,10.83,10.83,0,0,1,3.94.69,8.89,8.89,0,0,1,3.11,2Z"/><path class="cls-6" d="M395.33,110.27a14.75,14.75,0,0,1-.92,5.32,12.06,12.06,0,0,1-2.59,4.16,11.47,11.47,0,0,1-4,2.71,14.37,14.37,0,0,1-10.38,0,11.43,11.43,0,0,1-4-2.71,12.06,12.06,0,0,1-2.59-4.16,15.84,15.84,0,0,1,0-10.64,12.14,12.14,0,0,1,2.59-4.18,11.45,11.45,0,0,1,4-2.72,14.23,14.23,0,0,1,10.38,0,11.49,11.49,0,0,1,4,2.72,12.14,12.14,0,0,1,2.59,4.18A14.71,14.71,0,0,1,395.33,110.27Zm-3.58,0a13.16,13.16,0,0,0-.65-4.27,9,9,0,0,0-1.83-3.19,8.14,8.14,0,0,0-2.88-2,10.53,10.53,0,0,0-7.55,0,8.18,8.18,0,0,0-2.89,2,9,9,0,0,0-1.84,3.19,14.28,14.28,0,0,0,0,8.52,9,9,0,0,0,1.84,3.19,8,8,0,0,0,2.89,2,10.67,10.67,0,0,0,7.55,0,8,8,0,0,0,2.88-2,9,9,0,0,0,1.83-3.19A13,13,0,0,0,391.75,110.27Z"/><path class="cls-6" d="M410.13,120.38a7.22,7.22,0,0,0,2.86-.54,5.94,5.94,0,0,0,2.13-1.51,6.56,6.56,0,0,0,1.33-2.32,9.07,9.07,0,0,0,.46-3V97.36h3.48V113a11.84,11.84,0,0,1-.71,4.14,9.76,9.76,0,0,1-2,3.3,9.33,9.33,0,0,1-3.23,2.19,12,12,0,0,1-8.57,0,9.47,9.47,0,0,1-3.24-2.19,9.61,9.61,0,0,1-2-3.3,11.84,11.84,0,0,1-.71-4.14V97.36h3.47V113a9.34,9.34,0,0,0,.46,3,6.71,6.71,0,0,0,1.33,2.32,6,6,0,0,0,2.15,1.52A7.06,7.06,0,0,0,410.13,120.38Z"/><path class="cls-6" d="M430.22,112.39v10.77h-3.48V97.36H434a15.93,15.93,0,0,1,4.23.5,7.92,7.92,0,0,1,2.94,1.43,5.58,5.58,0,0,1,1.72,2.26,7.95,7.95,0,0,1,.13,5.51,6.84,6.84,0,0,1-1.25,2.14,7.61,7.61,0,0,1-2,1.61,10.21,10.21,0,0,1-2.67,1,3.69,3.69,0,0,1,1.15,1.09l7.52,10.25h-3.09a1.54,1.54,0,0,1-1.41-.74l-6.69-9.22a2,2,0,0,0-.67-.62,2.35,2.35,0,0,0-1.08-.19Zm0-2.54h3.65a8.75,8.75,0,0,0,2.69-.37,5.37,5.37,0,0,0,1.94-1,4.23,4.23,0,0,0,1.18-1.61,5.13,5.13,0,0,0,.4-2.07,4.11,4.11,0,0,0-1.52-3.47,7.36,7.36,0,0,0-4.53-1.17h-3.81Z"/><path class="cls-6" d="M466.92,117.83a.75.75,0,0,1,.52.23l1.37,1.5a11.24,11.24,0,0,1-3.84,2.86,13.22,13.22,0,0,1-5.45,1,12.86,12.86,0,0,1-5.06-1,11.07,11.07,0,0,1-3.87-2.7,12.23,12.23,0,0,1-2.48-4.17,15.5,15.5,0,0,1-.88-5.34,14.63,14.63,0,0,1,.94-5.35,12.16,12.16,0,0,1,2.66-4.17A11.75,11.75,0,0,1,454.92,98a13.81,13.81,0,0,1,5.27-1,12.36,12.36,0,0,1,4.9.89,12,12,0,0,1,3.66,2.39l-1.13,1.6a1.18,1.18,0,0,1-.29.3.78.78,0,0,1-.47.12.87.87,0,0,1-.49-.18c-.18-.11-.38-.25-.62-.42s-.52-.35-.85-.54a7.77,7.77,0,0,0-1.15-.54,8.84,8.84,0,0,0-1.55-.42,10.26,10.26,0,0,0-2-.17,9.69,9.69,0,0,0-3.79.71,8.48,8.48,0,0,0-3,2,9.23,9.23,0,0,0-1.94,3.21,12.27,12.27,0,0,0-.69,4.23,12.47,12.47,0,0,0,.69,4.3,9.41,9.41,0,0,0,1.89,3.19,8,8,0,0,0,2.84,2,9,9,0,0,0,3.53.69,14.44,14.44,0,0,0,2.07-.14,8.81,8.81,0,0,0,1.7-.42,7.38,7.38,0,0,0,1.46-.73,11,11,0,0,0,1.35-1.05A1,1,0,0,1,466.92,117.83Z"/><path class="cls-6" d="M489.29,97.36v2.85H476.91v8.56h10v2.74h-10v8.8h12.38v2.85H473.4V97.36Z"/><path class="cls-6" d="M514.47,101.39a1.3,1.3,0,0,1-.34.41.77.77,0,0,1-.47.13,1.27,1.27,0,0,1-.71-.3,11.22,11.22,0,0,0-1-.68,8.83,8.83,0,0,0-1.5-.67,7.09,7.09,0,0,0-4.18,0,4.5,4.5,0,0,0-1.51.85,3.43,3.43,0,0,0-.9,1.27,3.94,3.94,0,0,0-.31,1.58,3,3,0,0,0,.53,1.79,4.5,4.5,0,0,0,1.4,1.21,10.56,10.56,0,0,0,2,.87l2.27.77c.78.26,1.53.56,2.27.89a8,8,0,0,1,2,1.25,5.67,5.67,0,0,1,1.4,1.86,6.07,6.07,0,0,1,.53,2.7,8.78,8.78,0,0,1-.57,3.17,7.62,7.62,0,0,1-1.68,2.59,8,8,0,0,1-2.72,1.72,10,10,0,0,1-3.66.63,11.17,11.17,0,0,1-4.57-.91,10.65,10.65,0,0,1-3.52-2.45l1-1.66a1.37,1.37,0,0,1,.35-.33A.83.83,0,0,1,501,118a1.43,1.43,0,0,1,.86.41,14,14,0,0,0,1.22.89,9.6,9.6,0,0,0,1.76.89,7,7,0,0,0,2.53.41,6.63,6.63,0,0,0,2.22-.35,4.68,4.68,0,0,0,1.64-1,4.18,4.18,0,0,0,1-1.48,5,5,0,0,0,.36-1.93,3.27,3.27,0,0,0-.53-1.92,4.46,4.46,0,0,0-1.4-1.25,9.65,9.65,0,0,0-2-.85l-2.27-.72a21.92,21.92,0,0,1-2.26-.86,7.06,7.06,0,0,1-2-1.26,5.65,5.65,0,0,1-1.4-1.93,7,7,0,0,1-.53-2.88,6.87,6.87,0,0,1,2.07-4.91,7.33,7.33,0,0,1,2.49-1.58,9.06,9.06,0,0,1,3.41-.6,10.88,10.88,0,0,1,4,.69,9,9,0,0,1,3.11,2Z"/><path class="cls-6" d="M544.3,110.27a15,15,0,0,1-.92,5.32,12.21,12.21,0,0,1-2.59,4.16,11.56,11.56,0,0,1-4,2.71,14.37,14.37,0,0,1-10.38,0,11.56,11.56,0,0,1-4-2.71,12.21,12.21,0,0,1-2.59-4.16,15.84,15.84,0,0,1,0-10.64,12.29,12.29,0,0,1,2.59-4.18,11.58,11.58,0,0,1,4-2.72,14.23,14.23,0,0,1,10.38,0,11.58,11.58,0,0,1,4,2.72,12.29,12.29,0,0,1,2.59,4.18A14.93,14.93,0,0,1,544.3,110.27Zm-3.58,0a13.16,13.16,0,0,0-.65-4.27,9,9,0,0,0-1.84-3.19,8,8,0,0,0-2.88-2,10.5,10.5,0,0,0-7.54,0,8.09,8.09,0,0,0-2.89,2,8.86,8.86,0,0,0-1.84,3.19,14.28,14.28,0,0,0,0,8.52,8.86,8.86,0,0,0,1.84,3.19,7.94,7.94,0,0,0,2.89,2,10.64,10.64,0,0,0,7.54,0,7.82,7.82,0,0,0,2.88-2,9,9,0,0,0,1.84-3.19A13,13,0,0,0,540.72,110.27Z"/><path class="cls-6" d="M565,97.36v2.85H552.58v9h10.58v2.85H552.58v11.09h-3.51V97.36Z"/><path class="cls-6" d="M587,97.36v2.94h-8.33v22.86h-3.49V100.3h-8.37V97.36Z"/><path class="cls-6" d="M587.8,97.36h2.9a1.25,1.25,0,0,1,.78.24,1.12,1.12,0,0,1,.41.59l5.33,17.93c.09.32.18.67.26,1s.15.76.22,1.17c.09-.41.17-.8.26-1.18a10.07,10.07,0,0,1,.28-1l6.07-17.93a1.36,1.36,0,0,1,.42-.57,1.19,1.19,0,0,1,.77-.26h1a1.17,1.17,0,0,1,.76.24,1.19,1.19,0,0,1,.42.59l6,17.93a17.15,17.15,0,0,1,.58,2.14c.07-.4.14-.77.2-1.13a8.86,8.86,0,0,1,.23-1l5.35-17.93a1.12,1.12,0,0,1,.4-.58,1.25,1.25,0,0,1,.77-.25H624l-8.05,25.8h-3.13l-6.54-19.68a11.57,11.57,0,0,1-.36-1.29c-.06.24-.11.47-.17.69s-.11.42-.17.6L599,123.16h-3.13Z"/><path class="cls-6" d="M646.9,123.16h-2.7a1.15,1.15,0,0,1-.76-.24,1.44,1.44,0,0,1-.43-.59l-2.41-6.23H629l-2.41,6.23a1.37,1.37,0,0,1-.43.57,1.15,1.15,0,0,1-.76.26h-2.7L633,97.36h3.54ZM630,113.58h9.63l-4-10.49a18.46,18.46,0,0,1-.78-2.43c-.13.49-.26.94-.38,1.35s-.25.78-.37,1.09Z"/><path class="cls-6" d="M654,112.39v10.77h-3.47V97.36h7.29a15.93,15.93,0,0,1,4.23.5A8.07,8.07,0,0,1,665,99.29a5.67,5.67,0,0,1,1.72,2.26,7.58,7.58,0,0,1,.56,3,7.34,7.34,0,0,1-.44,2.55,6.48,6.48,0,0,1-1.25,2.14,7.45,7.45,0,0,1-2,1.61,9.94,9.94,0,0,1-2.67,1,3.59,3.59,0,0,1,1.15,1.09l7.53,10.25h-3.1a1.53,1.53,0,0,1-1.4-.74l-6.7-9.22a1.92,1.92,0,0,0-.66-.62,2.35,2.35,0,0,0-1.08-.19Zm0-2.54h3.65a8.75,8.75,0,0,0,2.69-.37,5.34,5.34,0,0,0,1.95-1,4.45,4.45,0,0,0,1.18-1.61,5.3,5.3,0,0,0,.39-2.07,4.08,4.08,0,0,0-1.52-3.47,7.33,7.33,0,0,0-4.52-1.17H654Z"/><path class="cls-6" d="M689.23,97.36v2.85H676.85v8.56h10v2.74h-10v8.8h12.38v2.85H673.34V97.36Z"/></svg>