<svg xmlns="http://www.w3.org/2000/svg" width="363.61" height="133.95" viewBox="0 0 363.61 133.95"><path d="M191.11,71.08h55.83L219.05,17.13Zm64,11.29H183a6.35,6.35,0,0,1-5.63-9.25L213.43,3.44A6.3,6.3,0,0,1,219.05,0h0a6.3,6.3,0,0,1,5.62,3.43l36,69.68a6.34,6.34,0,0,1-5.63,9.25" fill="#ffd200"/><path d="M363.61,6.1V76.72a5.71,5.71,0,0,1-11.42,0V25.15l-23.67,37a5.87,5.87,0,0,1-5.4,3.26,6,6,0,0,1-5.22-3.35L294.3,25.28V76.72c0,7.41-11.42,7.41-11.42,0V6.1A5.8,5.8,0,0,1,287,.17a5.83,5.83,0,0,1,6.54,3.13L323.3,49.66,352.86,3.24c1.64-2.54,4.31-3.71,6.8-3a5.79,5.79,0,0,1,3.95,5.84" fill="#ff6200"/><path d="M157.1,77.21A5.16,5.16,0,0,1,152,82.37H97.11a5.15,5.15,0,1,1,0-10.29H152a5.15,5.15,0,0,1,5.15,5.13" fill="#ff6200"/><path d="M72.4,57.44c0,21.68-21.23,24.93-33.87,24.93H5.2A5.21,5.21,0,0,1,5.2,72H38.53c14.71,0,22.2-4.87,22.2-14.51,0-11.85-12.89-13.11-18.42-13.11H5.2a5.22,5.22,0,0,1,0-10.43H36c8.75,0,19.18-1.91,19.18-11,0-12.16-17.56-12.51-19.56-12.51H5.2A5.2,5.2,0,0,1,5.2,0H35.62c7.27,0,31,1.64,31,22.91,0,6.53-2.87,11.8-8,14.82C67.53,41.39,72.4,48.3,72.4,57.44" fill="#ff6200"/><path d="M155.79,39a5.13,5.13,0,0,1-5.13,5.14H98.4a5.15,5.15,0,0,1,0-10.29h52.26A5.13,5.13,0,0,1,155.79,39" fill="#ff6200"/><path d="M92,5.15A5.13,5.13,0,0,1,97.11,0H152a5.14,5.14,0,1,1,0,10.28H97.11A5.16,5.16,0,0,1,92,5.15" fill="#ff6200"/><path d="M5.79,131.55A11.66,11.66,0,0,1,2.61,128a3,3,0,0,1,1.5-4.37,3,3,0,0,1,3.77,1.19,7.36,7.36,0,0,0,1.4,1.8,5.66,5.66,0,0,0,4.06,1.54,5.92,5.92,0,0,0,3.49-1,3.27,3.27,0,0,0,1.44-2.82,3.7,3.7,0,0,0-1.38-3,17.51,17.51,0,0,0-4.9-2.46l-2-.73a13.76,13.76,0,0,1-5.34-3.32,7.68,7.68,0,0,1-2.22-5.63,8.54,8.54,0,0,1,1.31-4.62,9.2,9.2,0,0,1,3.71-3.28,12.1,12.1,0,0,1,5.43-1.19,10.67,10.67,0,0,1,6.92,2,11.86,11.86,0,0,1,1.87,1.88,2.7,2.7,0,0,1-1.16,4.11l-.51.21a2.69,2.69,0,0,1-3.09-.9,5.77,5.77,0,0,0-.75-.73,4.92,4.92,0,0,0-3.19-1,5.48,5.48,0,0,0-3.28.93,2.86,2.86,0,0,0-1.29,2.42,3.1,3.1,0,0,0,1.23,2.47,12.87,12.87,0,0,0,4,2l2,.68A15.69,15.69,0,0,1,22.14,118a9.68,9.68,0,0,1,.61,11.57,9.86,9.86,0,0,1-4.18,3.28A13.23,13.23,0,0,1,13.3,134a12.33,12.33,0,0,1-7.51-2.4" fill="#fff"/><path d="M72.62,132.32a11,11,0,0,1-4.39-4.7,15.93,15.93,0,0,1-1.56-7.29V103.87a3,3,0,0,1,3-3h0a3,3,0,0,1,3,3V120.7a8.22,8.22,0,0,0,1.7,5.4,6.66,6.66,0,0,0,9.63,0,8.22,8.22,0,0,0,1.7-5.4V103.87a3,3,0,1,1,6.06,0v16.46a15.63,15.63,0,0,1-1.54,7.11,11.43,11.43,0,0,1-4.39,4.79A12.66,12.66,0,0,1,79.24,134a13,13,0,0,1-6.62-1.63" fill="#fff"/><path d="M140.39,100.84h0a4.64,4.64,0,0,1,4.35,3l7.46,19.74h.36L160,103.85a4.66,4.66,0,0,1,4.35-3h0a4.65,4.65,0,0,1,4.65,4.66v24.72a3,3,0,0,1-3,3h0a3,3,0,0,1-3-3v-13l.36-5.39H163l-7.49,19.43a3,3,0,0,1-2.8,1.93h-.63a3,3,0,0,1-2.8-1.93l-7.53-19.43h-.37l.37,5.39v13a3,3,0,1,1-6,0V105.5a4.65,4.65,0,0,1,4.65-4.66" fill="#fff"/><path d="M218.19,100.84h0a4.65,4.65,0,0,1,4.35,3L230,123.59h.36l7.46-19.74a4.65,4.65,0,0,1,4.35-3h.05a4.65,4.65,0,0,1,4.65,4.66v24.72a3,3,0,0,1-3,3h0a3,3,0,0,1-3-3v-13l.36-5.39h-.36l-7.49,19.43a3,3,0,0,1-2.81,1.93h-.62a3,3,0,0,1-2.81-1.93l-7.53-19.43h-.36l.36,5.39v13a3,3,0,1,1-6,0V105.5a4.65,4.65,0,0,1,4.65-4.66" fill="#fff"/><path d="M294.39,100.84h0a3.06,3.06,0,0,1,3.05,3v26.28a3.06,3.06,0,1,1-6.11,0V103.89a3.06,3.06,0,0,1,3.06-3" fill="#fff"/><path d="M348.46,106.63h-6.15a2.9,2.9,0,1,1,0-5.79h18.4a2.9,2.9,0,1,1,0,5.79h-6.14v23.7a2.9,2.9,0,0,1-2.9,2.9h-.32a2.9,2.9,0,0,1-2.89-2.9Z" fill="#fff"/></svg>