<svg xmlns="http://www.w3.org/2000/svg" class="style-scope home-page" id="Layer_2" viewBox="0 0 25.1667 37.8704" x="0px" y="0px" version="1.1" xmlns:xml="http://www.w3.org/XML/1998/namespace" xml:space="preserve" enable-background="new 0 0 25.166666 37.8704414">
        <path class="stroke style-scope home-page" fill="none" stroke="#c7c4b8" stroke-miterlimit="10" stroke-width="2.5" d="M 12.5833 36.6204 h -2.29e-005 C 6.34999 36.6204 1.25 31.5204 1.25 25.2871 V 12.5833 C 1.25 6.34999 6.35 1.25 12.5833 1.25 h 2.29e-005 c 6.23333 0 11.3333 5.09999 11.3333 11.3333 v 12.7038 C 23.9167 31.5204 18.8167 36.6204 12.5833 36.6204 Z"/>
        <path class="scroller style-scope home-page" fill="#c7c4b8" d="M 13.0833 19.2157 h -0.919275 c -1.1 0 -2 -0.9 -2 -2 v -5.42861 c 0 -1.1 0.899999 -2 2 -2 h 0.919275 c 1.1 0 2 0.899999 2 2 v 5.42861 C 15.0833 18.3157 14.1833 19.2157 13.0833 19.2157 Z"/>
    </svg>