<svg id="svg1903" xmlns="http://www.w3.org/2000/svg" viewBox="0 0 497 545"><defs><style>.cls-1,.cls-2{isolation:isolate;}.cls-2{font-size:25.89px;font-family:ArialMT, Arial;letter-spacing:0.01em;}</style></defs><g id="layer1"><g id="g3963"><g id="g3771"><g id="g3773"><path id="path3775" d="M344,39.71c-71.72,0-85.17,102.14-44.83,102.14S415.71,39.71,344,39.71Z"/><path id="path3777" d="M224.92,129.19c21.48,1.31,45.05-82,4.67-76.73S203.43,127.88,224.92,129.19Z"/><path id="path3779" d="M126.48,180.94c15.27-6.72,2-72.5-24-54.56S111.2,187.67,126.48,180.94Z"/><path id="path3781" d="M169.52,146.52c18.19-3.71,19.18-78.31-13.25-64.93s-4.92,68.64,13.25,64.93Z"/><path id="path3783" d="M264.49,313.46c3.22,24.64-18.08,36.81-39,20.92-66.42-50.57,110-75.8,98.35-144.89-9.65-57.34-185.61-39.69-205.64,50-13.57,60.69,55.82,144.89,128.23,144.89,35.62,0,76.71-32.16,84.39-72.9,5.87-31.07-69.08-18.62-66.38,1.94Z"/></g></g><g id="g3956"><path id="path3787" d="M230.14,420.67q-13.32.36-21.06,9.55-8,9.55-8,26.4t8,26.35q8.05,9.55,22.14,9.55T253.38,483q8-9.56,8-26.35t-8-26.4q-8-9.56-22.16-9.55Zm.66,12.93h.42a12.05,12.05,0,0,1,10.77,6q3.81,6,3.82,17T242,473.54a12.56,12.56,0,0,1-21.48,0q-3.81-6-3.82-16.92t3.82-17A12,12,0,0,1,230.8,433.6Z"/><path id="path3789" d="M129.8,486c-7.82,6.57-19.46,6.49-24.31,6.49q-14.65,0-23.22-9.65t-8.56-26.25q0-16.75,8.72-26.35t23.88-9.61a47.65,47.65,0,0,1,11.2,1.3,42.65,42.65,0,0,1,10.13,3.85l-4.07,12a41.3,41.3,0,0,0-5.71-2.61,30.37,30.37,0,0,0-9.7-1.62q-9,0-14,6t-4.87,17q0,11,4.72,17c3.14,4,7.86,6,13.39,6s9.1-1.42,11-2.91v-12H106.23v-12H129.8"/><path id="path3793" d="M271.32,421.91h19.24l13.36,43.25,13.43-43.25h16.27L341,491.18h-14.3l-4.41-43.31-13.51,43.52h-9.58l-13.52-45-4.41,44.78H266.91l7.35-69.27"/><path id="path3795" d="M351.29,421.91H392.1v13.5H366.41v14.37h19.75v12H366.41v15.87H393v13.5H351.29V421.91"/><path id="path3791" d="M140.14,421.91h9.54l30.14,41.63V421.91h12.87v69.27h-9.54L153,449.55v41.63H140.14V421.91"/></g><g id="text3797" class="cls-1"><text class="cls-2" transform="translate(404.18 439.13)">TM</text></g></g></g></svg>